<?xml version="1.0" encoding="UTF-8" standalone="no"?>
<svg
   xmlns:dc="http://purl.org/dc/elements/1.1/"
   xmlns:cc="http://creativecommons.org/ns#"
   xmlns:rdf="http://www.w3.org/1999/02/22-rdf-syntax-ns#"
   xmlns:svg="http://www.w3.org/2000/svg"
   xmlns="http://www.w3.org/2000/svg"
   xmlns:sodipodi="http://sodipodi.sourceforge.net/DTD/sodipodi-0.dtd"
   xmlns:inkscape="http://www.inkscape.org/namespaces/inkscape"
   version="1.0"
   width="200px"
   height="200px"
   viewBox="0 0 200 200"
   id="svg3213"
   inkscape:version="0.48.2 r9819"
   sodipodi:docname="logo.svg"
   inkscape:export-filename="/Users/dsa/MyProjects/dreambox/src/images/logo.png"
   inkscape:export-xdpi="90"
   inkscape:export-ydpi="90">
  <defs
     id="defs3259" />
  <sodipodi:namedview
     pagecolor="#ffffff"
     bordercolor="#666666"
     borderopacity="1"
     objecttolerance="10"
     gridtolerance="10"
     guidetolerance="10"
     inkscape:pageopacity="0"
     inkscape:pageshadow="2"
     inkscape:window-width="1067"
     inkscape:window-height="746"
     id="namedview3257"
     showgrid="false"
     showguides="true"
     inkscape:guide-bbox="true"
     inkscape:zoom="1.9116932"
     inkscape:cx="105.30113"
     inkscape:cy="104.57405"
     inkscape:window-x="242"
     inkscape:window-y="95"
     inkscape:window-maximized="0"
     inkscape:current-layer="svg3213">
    <sodipodi:guide
       orientation="0,1"
       position="70.544465,286.65687"
       id="guide4029" />
    <sodipodi:guide
       orientation="0,1"
       position="141.08893,286.65687"
       id="guide4031" />
  </sodipodi:namedview>
  <metadata
     id="metadata3215">
Created by Sergey Dolin, 2013
<rdf:RDF>
  <cc:Work
     rdf:about="">
    <dc:format>image/svg+xml</dc:format>
    <dc:type
       rdf:resource="http://purl.org/dc/dcmitype/StillImage" />
    <dc:title>Dreambox Logo</dc:title>
  </cc:Work>
</rdf:RDF>
</metadata>
  <title
     id="title3217">Dreambox Logo</title>
  <path
     d="m 67.711131,64.723883 a 44.720497,44.720497 0 1 1 0,0.993789 z M 127.33846,10.065498 A 57.639752,57.639752 0 1 0 142.2453,114.41333 61.614907,61.614907 0 1 1 127.33846,10.065498 z M 47.835355,20.003386 A 79.503106,79.503106 0 1 0 178.02169,64.723883 74.534161,74.534161 0 1 1 47.835355,20.003386 z"
     storke-width="1"
     id="path3219"
     inkscape:connector-curvature="0"
     style="fill:#000000;stroke:none;stroke-width:0;stroke-miterlimit:4;stroke-dasharray:none;fill-opacity:1" />
  <g
     id="g3221"
     style="fill:#000000;fill-opacity:1;stroke:none;stroke-width:0;stroke-miterlimit:4;stroke-dasharray:none"
     transform="matrix(0.03991684,0,0,-0.03996638,2.004158,302.08929)">
    <path
       d="m 506,3408 c -14,-19 -16,-70 -16,-355 0,-320 1,-334 20,-353 11,-11 31,-20 45,-20 14,0 34,9 45,20 19,19 20,33 20,358 0,316 -1,340 -18,355 -27,25 -78,22 -96,-5 z"
       id="path3223"
       inkscape:connector-curvature="0"
       style="fill:#000000;fill-opacity:1;stroke:none;stroke-width:0;stroke-miterlimit:4;stroke-dasharray:none" />
    <path
       d="m 3195,3400 c -14,-26 -15,-76 -13,-354 3,-302 4,-325 22,-345 24,-26 67,-27 89,-3 15,17 17,56 17,359 0,317 -1,341 -18,356 -10,10 -33,17 -50,17 -25,0 -35,-6 -47,-30 z"
       id="path3225"
       inkscape:connector-curvature="0"
       style="fill:#000000;fill-opacity:1;stroke:none;stroke-width:0;stroke-miterlimit:4;stroke-dasharray:none" />
    <path
       d="M 255,3241 C 126,3207 50,3105 50,2965 c 0,-87 24,-150 80,-206 78,-78 197,-100 293,-55 l 37,18 0,64 0,65 -29,-22 c -69,-51 -185,-28 -230,44 -47,76 -15,199 61,238 50,25 95,24 152,-5 l 47,-24 -3,62 c -3,59 -4,62 -40,79 -42,21 -120,29 -163,18 z"
       id="path3227"
       inkscape:connector-curvature="0"
       style="fill:#000000;fill-opacity:1;stroke:none;stroke-width:0;stroke-miterlimit:4;stroke-dasharray:none" />
    <path
       d="m 745,3226 -26,-26 3,-246 c 3,-230 4,-247 22,-260 26,-18 56,-18 84,2 22,15 22,18 22,263 0,266 -2,274 -52,286 -21,5 -33,1 -53,-19 z"
       id="path3229"
       inkscape:connector-curvature="0"
       style="fill:#000000;fill-opacity:1;stroke:none;stroke-width:0;stroke-miterlimit:4;stroke-dasharray:none" />
    <path
       d="m 1213,3236 c -88,-28 -157,-99 -188,-194 -45,-135 38,-299 175,-347 74,-26 80,-23 80,39 0,52 -1,55 -30,61 -37,8 -76,39 -95,75 -24,46 -20,50 55,50 l 70,0 0,50 0,50 -65,0 c -70,0 -74,4 -51,49 17,32 52,58 87,63 22,3 24,7 24,57 0,30 -4,56 -10,57 -5,1 -29,-3 -52,-10 z"
       id="path3231"
       inkscape:connector-curvature="0"
       style="fill:#000000;fill-opacity:1;stroke:none;stroke-width:0;stroke-miterlimit:4;stroke-dasharray:none" />
    <path
       d="m 1310,3197 0,-52 45,-19 c 45,-18 85,-60 85,-90 0,-13 -12,-16 -65,-16 l -65,0 0,-50 0,-50 108,0 c 132,0 152,10 152,73 -1,111 -106,227 -227,250 l -33,7 0,-53 z"
       id="path3233"
       inkscape:connector-curvature="0"
       style="fill:#000000;fill-opacity:1;stroke:none;stroke-width:0;stroke-miterlimit:4;stroke-dasharray:none" />
    <path
       d="m 1798,3233 c -181,-60 -244,-313 -115,-460 72,-80 183,-113 278,-82 62,21 79,45 79,112 l 0,59 -30,-26 c -76,-63 -201,-39 -247,47 -25,47 -22,125 6,170 49,80 159,100 235,42 l 36,-27 0,59 c 0,68 -13,86 -77,109 -50,17 -107,16 -165,-3 z"
       id="path3235"
       inkscape:connector-curvature="0"
       style="fill:#000000;fill-opacity:1;stroke:none;stroke-width:0;stroke-miterlimit:4;stroke-dasharray:none" />
    <path
       d="m 2092,3234 c -22,-15 -22,-18 -22,-268 0,-232 1,-254 18,-269 24,-22 54,-21 83,2 l 24,19 0,247 0,247 -24,19 c -28,23 -49,24 -79,3 z"
       id="path3237"
       inkscape:connector-curvature="0"
       style="fill:#000000;fill-opacity:1;stroke:none;stroke-width:0;stroke-miterlimit:4;stroke-dasharray:none" />
    <path
       d="m 2299,3231 -24,-19 0,-245 c 0,-227 1,-246 19,-266 23,-26 67,-27 89,-3 15,16 17,50 17,265 0,234 -1,248 -20,267 -25,25 -51,25 -81,1 z"
       id="path3239"
       inkscape:connector-curvature="0"
       style="fill:#000000;fill-opacity:1;stroke:none;stroke-width:0;stroke-miterlimit:4;stroke-dasharray:none" />
    <path
       d="m 2473,3230 -43,-19 0,-56 c 0,-54 6,-65 27,-44 5,5 34,9 63,7 45,-3 56,-7 74,-31 19,-26 22,-46 26,-201 4,-126 9,-178 19,-190 17,-20 60,-21 87,-2 17,13 19,31 24,189 5,158 7,178 26,204 17,23 30,29 69,31 60,4 91,-11 105,-51 5,-16 10,-101 10,-188 0,-146 2,-161 20,-179 27,-27 75,-26 94,2 13,18 16,55 16,198 0,97 -5,193 -11,215 -22,77 -106,135 -197,135 -41,0 -101,-30 -138,-69 l -28,-30 -29,34 c -19,24 -44,39 -79,50 -66,19 -84,19 -135,-5 z"
       id="path3241"
       inkscape:connector-curvature="0"
       style="fill:#000000;fill-opacity:1;stroke:none;stroke-width:0;stroke-miterlimit:4;stroke-dasharray:none" />
    <path
       d="m 3430,3241 c -14,-4 -40,-16 -58,-25 -31,-16 -32,-19 -32,-76 0,-33 2,-60 5,-60 3,0 20,10 36,23 46,34 133,31 181,-5 72,-55 87,-163 33,-234 -44,-58 -137,-83 -191,-51 -12,6 -31,18 -43,25 -22,13 -22,13 -19,-50 l 3,-63 45,-22 c 88,-45 202,-23 284,55 131,126 103,371 -52,455 -53,29 -147,43 -192,28 z"
       id="path3243"
       inkscape:connector-curvature="0"
       style="fill:#000000;fill-opacity:1;stroke:none;stroke-width:0;stroke-miterlimit:4;stroke-dasharray:none" />
    <path
       d="m 4446,3226 c -15,-14 -26,-31 -26,-39 0,-8 31,-58 69,-113 l 69,-100 -55,-74 c -30,-41 -66,-94 -80,-118 l -26,-44 20,-26 c 15,-20 29,-27 54,-27 33,0 39,7 191,220 87,121 164,235 173,252 18,37 9,65 -26,84 -38,20 -62,3 -117,-86 -30,-47 -55,-85 -57,-85 -2,0 -25,34 -52,77 -26,42 -50,80 -53,84 -3,4 -17,10 -32,14 -21,5 -33,1 -52,-19 z"
       id="path3245"
       inkscape:connector-curvature="0"
       style="fill:#000000;fill-opacity:1;stroke:none;stroke-width:0;stroke-miterlimit:4;stroke-dasharray:none" />
    <path
       d="m 903,3223 c -20,-13 -23,-25 -23,-74 0,-53 10,-74 24,-50 3,4 22,11 42,14 46,8 74,33 74,67 0,53 -67,78 -117,43 z"
       id="path3247"
       inkscape:connector-curvature="0"
       style="fill:#000000;fill-opacity:1;stroke:none;stroke-width:0;stroke-miterlimit:4;stroke-dasharray:none" />
    <path
       d="m 3994,3229 c -42,-12 -120,-83 -144,-129 -63,-123 -37,-269 61,-353 42,-36 114,-67 156,-67 21,0 23,4 23,59 0,58 -1,60 -30,66 -72,16 -129,107 -115,182 13,71 53,115 128,137 13,4 17,17 17,61 l 0,55 -32,-1 c -18,0 -47,-5 -64,-10 z"
       id="path3249"
       inkscape:connector-curvature="0"
       style="fill:#000000;fill-opacity:1;stroke:none;stroke-width:0;stroke-miterlimit:4;stroke-dasharray:none" />
    <path
       d="m 4110,3185 c 0,-44 4,-57 18,-61 74,-22 114,-66 127,-137 14,-75 -43,-166 -115,-182 -29,-6 -30,-8 -30,-66 0,-55 2,-59 23,-59 73,0 181,69 216,139 65,127 40,268 -65,360 -47,41 -95,61 -146,61 -27,0 -28,-2 -28,-55 z"
       id="path3251"
       inkscape:connector-curvature="0"
       style="fill:#000000;fill-opacity:1;stroke:none;stroke-width:0;stroke-miterlimit:4;stroke-dasharray:none" />
    <path
       d="m 4692,2895 c -18,-25 -32,-48 -32,-50 0,-9 73,-120 93,-142 40,-44 107,-19 107,40 0,18 -22,58 -62,112 -34,47 -65,85 -68,85 -3,0 -21,-20 -38,-45 z"
       id="path3253"
       inkscape:connector-curvature="0"
       style="fill:#000000;fill-opacity:1;stroke:none;stroke-width:0;stroke-miterlimit:4;stroke-dasharray:none" />
    <path
       d="m 1438,2864 c -15,-8 -32,-23 -38,-34 -6,-11 -28,-25 -50,-31 l -40,-12 0,-54 c 0,-61 6,-64 87,-37 62,20 117,58 131,89 14,30 1,69 -27,84 -25,14 -30,13 -63,-5 z"
       id="path3255"
       inkscape:connector-curvature="0"
       style="fill:#000000;fill-opacity:1;stroke:none;stroke-width:0;stroke-miterlimit:4;stroke-dasharray:none" />
  </g>
</svg>
